<?xml version="1.0" standalone="no"?>
<!DOCTYPE svg PUBLIC "-//W3C//DTD SVG 20010904//EN"
 "http://www.w3.org/TR/2001/REC-SVG-20010904/DTD/svg10.dtd">
<svg version="1.0" xmlns="http://www.w3.org/2000/svg"
 width="76.000000pt" height="76.000000pt" viewBox="0 0 76.000000 76.000000"
 preserveAspectRatio="xMidYMid meet">

<g transform="translate(0.000000,76.000000) scale(0.100000,-0.100000)"
fill="#000000" stroke="none">
<path d="M466 634 c-5 -13 -9 -14 -21 -4 -19 16 -32 5 -16 -14 9 -11 7 -15
-11 -21 l-23 -8 22 -4 c13 -3 20 -10 17 -18 -3 -7 0 -16 6 -20 7 -4 14 2 17
14 5 21 6 21 26 4 20 -17 20 -17 15 4 -4 14 0 24 9 27 8 3 12 10 8 15 -3 6
-12 8 -20 5 -10 -4 -12 0 -8 15 6 25 -12 29 -21 5z"/>
<path d="M255 300 l0 -170 50 0 50 0 -3 170 -3 170 -47 0 -47 0 0 -170z"/>
<path d="M404 443 c28 -55 24 -122 -10 -163 -15 -17 -25 -32 -23 -34 10 -10
109 37 122 58 45 67 1 166 -72 166 -31 0 -31 0 -17 -27z"/>
</g>
</svg>
